<svg width="48" height="48" viewBox="0 0 48 48" fill="none" xmlns="http://www.w3.org/2000/svg">
<path d="M44.2344 14.5181V14.5161C44.2344 14.5142 44.2339 14.5128 44.2339 14.5109C44.2334 14.459 44.2262 14.4072 44.2147 14.3563C44.2109 14.34 44.2056 14.3246 44.2008 14.3088C44.1902 14.2737 44.1768 14.2392 44.1605 14.2051C44.1518 14.1873 44.1427 14.1696 44.1326 14.1528C44.1259 14.1413 44.1211 14.1283 44.1139 14.1173C44.101 14.0981 44.0851 14.0822 44.0707 14.0645C44.0592 14.0501 44.0486 14.0357 44.0362 14.0222C43.9992 13.9829 43.9594 13.9478 43.9157 13.9185C43.9152 13.9181 43.9147 13.9176 43.9142 13.9171L43.9138 13.9166C43.9123 13.9157 43.9109 13.9147 43.9099 13.9137L26.4523 2.29534C26.2104 2.13454 25.896 2.13454 25.6541 2.29534L19.5091 6.39214L19.5086 6.39262L13.8624 10.1563C13.7851 10.1904 13.7126 10.2369 13.6502 10.2979L4.092 16.6704C4.04592 16.7006 4.00368 16.7381 3.96432 16.7793C3.95184 16.7928 3.94128 16.8072 3.92976 16.8216C3.91536 16.8393 3.89952 16.8547 3.88656 16.8744C3.87888 16.8854 3.87456 16.8979 3.86784 16.9094C3.85776 16.9267 3.84816 16.9445 3.83952 16.9632C3.82368 16.9963 3.81072 17.0304 3.80016 17.0649C3.79488 17.0817 3.7896 17.0976 3.78576 17.1144C3.77472 17.1633 3.768 17.2128 3.76752 17.2627C3.76752 17.2665 3.76608 17.2699 3.76608 17.2733V17.2771V33.4829C3.76608 33.7238 3.88656 33.9489 4.0872 34.0824L21.5482 45.7041C21.5506 45.7056 21.553 45.7061 21.5554 45.7075C21.6058 45.7401 21.661 45.7646 21.7186 45.7843C21.733 45.7891 21.7469 45.7939 21.7613 45.7977C21.8208 45.8136 21.8822 45.8246 21.9466 45.8246C22.0109 45.8246 22.0723 45.8136 22.1318 45.7973C22.1462 45.7934 22.1606 45.7886 22.1746 45.7838C22.2336 45.7641 22.2902 45.7392 22.3411 45.7056C22.3426 45.7046 22.344 45.7041 22.3454 45.7037L22.3483 45.7017C22.3488 45.7017 22.3488 45.7013 22.3493 45.7013L43.9128 31.3253C44.113 31.1918 44.2334 30.9672 44.2334 30.7262V14.5214C44.2344 14.5205 44.2344 14.519 44.2344 14.5181ZM26.0539 3.75934L42.2155 14.5166L37.104 17.9246L21.1829 7.00702L26.0539 3.75934ZM21.947 28.0296L5.78448 17.2723L14.1581 11.6899L30.0797 22.6075L21.947 28.0296ZM19.8917 7.86766L35.8128 18.7853L31.3704 21.7469L15.4488 10.8293L19.8917 7.86766ZM32.0698 23.0112L36.3442 20.1614L36.192 26.9457L32.0698 29.6501V23.0112ZM5.20608 18.6168L21.227 29.2805V43.7601L5.20608 33.0969V18.6168ZM22.667 43.7592V29.28L30.6298 23.9712V30.9835C30.6298 31.248 30.7752 31.4913 31.0075 31.6171C31.115 31.6747 31.2326 31.7035 31.3498 31.7035C31.4875 31.7035 31.6253 31.6641 31.7448 31.5854L37.2984 27.9417C37.4962 27.8117 37.6176 27.5928 37.6234 27.3557L37.8062 19.1865L42.7944 15.8611V30.3408L22.667 43.7592Z" fill="#F5AF00"/>
<path d="M19.9099 32.8574C20.1427 32.8574 20.3712 32.7451 20.5099 32.5363C20.7302 32.2056 20.6405 31.7582 20.3098 31.5379L12.0605 26.0472C11.7293 25.8269 11.2819 25.9162 11.0621 26.2478C10.8418 26.5786 10.9315 27.0259 11.2622 27.2462L19.512 32.737C19.6344 32.8186 19.7731 32.8574 19.9099 32.8574Z" fill="#F5AF00"/>
<path d="M20.3098 35.2939L15.5856 32.1494C15.2544 31.9291 14.807 32.0189 14.5872 32.3501C14.3669 32.6808 14.4566 33.1281 14.7874 33.3485L19.5115 36.493C19.6339 36.5746 19.7726 36.6134 19.9099 36.6134C20.1427 36.6134 20.3712 36.5011 20.5099 36.2923C20.7302 35.9611 20.6405 35.5142 20.3098 35.2939Z" fill="#F5AF00"/>
</svg>
