<svg width="48" height="48" viewBox="0 0 48 48" fill="none" xmlns="http://www.w3.org/2000/svg">
<path d="M37.968 4.84801H30.336V1.58401C30.336 1.20001 30 0.864014 29.616 0.864014H18.24C17.856 0.864014 17.52 1.20001 17.52 1.58401V4.84801H9.45601C7.77601 4.84801 6.43201 6.19201 6.43201 7.87201V44.064C6.43201 45.744 7.77601 47.088 9.45601 47.088H38.016C39.696 47.088 41.04 45.744 41.04 44.064V7.87201C40.992 6.19201 39.648 4.84801 37.968 4.84801ZM18.24 14.16H29.616C30 14.16 30.336 13.824 30.336 13.44V10.32H35.376V41.376H12.048V10.368H17.52V13.44C17.52 13.872 17.856 14.16 18.24 14.16ZM28.896 2.30401V9.60001V12.72H18.96V9.60001V5.52001V2.30401H28.896ZM39.552 44.016C39.552 44.88 38.832 45.6 37.968 45.6H9.45601C8.59201 45.6 7.87201 44.88 7.87201 44.016V7.87201C7.87201 7.00801 8.59201 6.28801 9.45601 6.28801H17.52V8.92801H11.328C10.944 8.92801 10.608 9.26401 10.608 9.64801V42.144C10.608 42.528 10.944 42.864 11.328 42.864H36.096C36.48 42.864 36.816 42.528 36.816 42.144V9.64801C36.816 9.26401 36.48 8.92801 36.096 8.92801H30.336V6.28801H37.968C38.832 6.28801 39.552 7.00801 39.552 7.87201V44.016Z" fill="#F5AF00"/>
<path d="M13.824 22.272C13.824 22.656 14.16 22.992 14.544 22.992H33.024C33.408 22.992 33.744 22.656 33.744 22.272C33.744 21.888 33.408 21.552 33.024 21.552H14.544C14.16 21.552 13.824 21.888 13.824 22.272Z" fill="#F5AF00"/>
<path d="M33.024 26.592H14.544C14.16 26.592 13.824 26.928 13.824 27.312C13.824 27.696 14.16 28.032 14.544 28.032H33.024C33.408 28.032 33.744 27.696 33.744 27.312C33.744 26.928 33.408 26.592 33.024 26.592Z" fill="#F5AF00"/>
<path d="M33.024 31.872H14.544C14.16 31.872 13.824 32.208 13.824 32.592C13.824 32.976 14.16 33.312 14.544 33.312H33.024C33.408 33.312 33.744 32.976 33.744 32.592C33.744 32.208 33.408 31.872 33.024 31.872Z" fill="#F5AF00"/>
</svg>
