<svg width="48" height="48" viewBox="0 0 48 48" fill="none" xmlns="http://www.w3.org/2000/svg">
<path d="M45.3043 23.8263H41.58V17.5411C41.58 17.1432 41.2574 16.8211 40.86 16.8211H29.1955V10.549C29.1955 10.1511 28.8729 9.82898 28.4755 9.82898H2.69662C2.2987 9.82898 1.97662 10.1511 1.97662 10.549V34.1578C1.97662 34.5552 2.2987 34.8778 2.69662 34.8778H8.71486C8.96446 36.7339 10.5542 38.1711 12.4771 38.1711C14.4 38.1711 15.9897 36.7339 16.2393 34.8778H28.4755H33.1248C33.3744 36.7339 34.9651 38.1711 36.8899 38.1711C38.8147 38.1711 40.4054 36.7339 40.6555 34.8778H45.3048C45.7022 34.8778 46.0248 34.5552 46.0248 34.1578V24.5463C46.0243 24.1483 45.7017 23.8263 45.3043 23.8263ZM12.4771 36.7311C11.1758 36.7311 10.1169 35.6717 10.1169 34.3695C10.1169 33.0672 11.1758 32.0079 12.4771 32.0079C13.7784 32.0079 14.8373 33.0672 14.8373 34.3695C14.8373 35.6717 13.7789 36.7311 12.4771 36.7311ZM12.4771 30.5679C10.7035 30.5679 9.21454 31.7914 8.79742 33.4378H3.41662V11.269H27.7555V17.5411V24.5463V33.4373H16.1573C15.7401 31.7914 14.2507 30.5679 12.4771 30.5679ZM36.8899 36.7311C35.5867 36.7311 34.5269 35.6717 34.5269 34.3695C34.5269 33.0672 35.5867 32.0079 36.8899 32.0079C38.1931 32.0079 39.2534 33.0672 39.2534 34.3695C39.2534 35.6717 38.1926 36.7311 36.8899 36.7311ZM44.5843 33.4373H40.5729C40.1553 31.7909 38.6649 30.5674 36.8899 30.5674C35.1149 30.5674 33.6245 31.7909 33.2073 33.4373H29.196V24.5463V18.2611H40.1405V24.5463C40.1405 24.9437 40.463 25.2663 40.8605 25.2663H44.5848L44.5843 33.4373Z" fill="#F5AF00"/>
</svg>
