<svg width="48" height="48" viewBox="0 0 48 48" fill="none" xmlns="http://www.w3.org/2000/svg">
<path d="M35.8032 9.96526C33.5371 7.93774 30.6134 6.9139 27.5837 7.08238C24.5486 7.25086 21.7608 8.59102 19.7338 10.8557C15.5491 15.5318 15.949 22.7409 20.6251 26.9256C22.7938 28.8657 25.5053 29.82 28.2086 29.82C31.3358 29.82 34.4506 28.5422 36.695 26.0342C40.8792 21.359 40.4794 14.1499 35.8032 9.96526ZM35.6213 25.0747C31.967 29.159 25.6699 29.5085 21.5851 25.8523C17.5003 22.1971 17.1514 15.9005 20.8061 11.8161C22.5768 9.83758 25.0123 8.66686 27.6629 8.51998C27.8515 8.5099 28.0387 8.50462 28.2259 8.50462C30.6734 8.50462 33.0043 9.3931 34.8427 11.0381C38.9275 14.6937 39.2765 20.9904 35.6213 25.0747Z" fill="#F5AF00"/>
<path d="M22.0853 12.9393C21.8198 13.236 21.8453 13.691 22.1414 13.956C22.2792 14.0789 22.4506 14.1393 22.6214 14.1393C22.8192 14.1393 23.016 14.0587 23.1581 13.8993C25.6656 11.0976 29.9837 10.8585 32.7854 13.3651C33.0816 13.6305 33.5362 13.6051 33.8021 13.3089C34.067 13.0123 34.0416 12.5573 33.7454 12.2923C30.3518 9.25581 25.1213 9.54669 22.0853 12.9393Z" fill="#F5AF00"/>
<path d="M43.5245 17.5181C43.2802 13.4419 41.4634 9.70563 38.4086 6.99603C35.3539 4.28643 31.4304 2.93283 27.3504 3.17331C23.2747 3.41763 19.5379 5.23443 16.8288 8.28915C11.3976 14.4125 11.7883 23.7173 17.5896 29.3722L15.1066 32.2051L14.3102 31.4991C14.0131 31.2351 13.56 31.2619 13.296 31.5576L4.656 41.2128C4.52832 41.3549 4.46304 41.5421 4.4736 41.7327C4.48416 41.9232 4.57008 42.1023 4.71216 42.2295L7.42656 44.6587C7.56432 44.7816 7.73568 44.8421 7.90656 44.8421C8.10432 44.8421 8.30112 44.761 8.4432 44.6021L17.0947 34.9344C17.2224 34.7919 17.2882 34.6042 17.2771 34.4127C17.2661 34.2221 17.1792 34.0426 17.0362 33.9159L16.1842 33.1603L18.6658 30.3293C21.3936 32.5359 24.7426 33.72 28.2446 33.72C28.5552 33.72 28.8677 33.7104 29.1802 33.6917C33.2558 33.4469 36.9926 31.6301 39.7022 28.5754C42.4118 25.5207 43.7688 21.5943 43.5245 17.5181ZM7.8504 43.1055L6.20928 41.6367L13.8912 33.0523L15.5395 34.5139L7.8504 43.1055ZM38.6246 27.6202C36.1704 30.3874 32.7854 32.0328 29.0938 32.2541C25.4026 32.4816 21.8448 31.2456 19.0776 28.7919C13.3656 23.7255 12.84 14.9563 17.9064 9.24435C20.3606 6.47715 23.7456 4.83171 27.4373 4.61043C27.7205 4.59315 28.0027 4.58499 28.2845 4.58499C31.6704 4.58499 34.8989 5.80707 37.4539 8.07315C40.2211 10.5274 41.8666 13.9123 42.0878 17.604C42.3086 21.2962 41.0784 24.8535 38.6246 27.6202Z" fill="#F5AF00"/>
</svg>
