<svg width="35" height="35" viewBox="0 0 35 35" fill="none" xmlns="http://www.w3.org/2000/svg">
<path d="M33.0021 22.6042L29.4729 8.53131C29.3873 8.19216 29.1825 7.8951 28.8961 7.69432C28.6096 7.49354 28.2606 7.40241 27.9125 7.43756C25.9584 7.64172 20.6209 8.02089 17.5 8.02089C14.3792 8.02089 9.0417 7.64172 7.08753 7.43756C6.73949 7.40241 6.39042 7.49354 6.10397 7.69432C5.81753 7.8951 5.61279 8.19216 5.52711 8.53131L1.99795 22.6042C1.92062 22.8958 1.90444 23.2003 1.95044 23.4984C1.99644 23.7966 2.10361 24.082 2.26522 24.3368C2.42684 24.5915 2.6394 24.8101 2.88954 24.9787C3.13969 25.1474 3.42202 25.2624 3.71878 25.3167C8.28171 25.9816 12.8891 26.2937 17.5 26.2501C22.1109 26.2937 26.7184 25.9816 31.2813 25.3167C31.578 25.2624 31.8604 25.1474 32.1105 24.9787C32.3607 24.8101 32.5732 24.5915 32.7348 24.3368C32.8965 24.082 33.0036 23.7966 33.0496 23.4984C33.0956 23.2003 33.0794 22.8958 33.0021 22.6042Z" fill="#F5AF00"/>
</svg>
