<svg width="35" height="28" viewBox="0 0 35 28" fill="none" xmlns="http://www.w3.org/2000/svg">
<path d="M5.25 0V12.705C2.1 13.825 0 16.8 0 20.125C0 24.5 3.5 28 7.875 28C11.8825 28 15.2425 24.99 15.6975 21H23.0475C22.855 21.56 22.75 22.155 22.75 22.75C22.75 24.1424 23.3031 25.4777 24.2877 26.4623C25.2723 27.4469 26.6076 28 28 28C29.3924 28 30.7277 27.4469 31.7123 26.4623C32.6969 25.4777 33.25 24.1424 33.25 22.75C33.25 22.155 33.145 21.56 32.935 21H35V15.75C35 13.8075 33.4425 12.25 31.5 12.25H22.82L20.3875 0H5.25ZM8.75 3.5H17.5L19.25 12.25V17.5H15.295C14.7964 16.1101 13.9195 14.887 12.7631 13.9687C11.6067 13.0504 10.2168 12.4733 8.75 12.3025V3.5ZM7.875 16.1875C8.91929 16.1875 9.92081 16.6023 10.6592 17.3408C11.3977 18.0792 11.8125 19.0807 11.8125 20.125C11.8125 21.1693 11.3977 22.1708 10.6592 22.9092C9.92081 23.6477 8.91929 24.0625 7.875 24.0625C6.83071 24.0625 5.82919 23.6477 5.09077 22.9092C4.35234 22.1708 3.9375 21.1693 3.9375 20.125C3.9375 19.0807 4.35234 18.0792 5.09077 17.3408C5.82919 16.6023 6.83071 16.1875 7.875 16.1875ZM28 20.125C28.6962 20.125 29.3639 20.4016 29.8562 20.8938C30.3484 21.3861 30.625 22.0538 30.625 22.75C30.625 23.4462 30.3484 24.1139 29.8562 24.6062C29.3639 25.0984 28.6962 25.375 28 25.375C27.3038 25.375 26.6361 25.0984 26.1438 24.6062C25.6516 24.1139 25.375 23.4462 25.375 22.75C25.375 22.0538 25.6516 21.3861 26.1438 20.8938C26.6361 20.4016 27.3038 20.125 28 20.125Z" fill="#F5AF00"/>
</svg>
