<svg width="35" height="35" viewBox="0 0 35 35" fill="none" xmlns="http://www.w3.org/2000/svg">
<path d="M15.3177 35C14.6995 35 14.1817 34.79 13.7642 34.37C13.3453 33.9515 13.1359 33.4323 13.1359 32.8125V19.6875L0.480921 3.5C-0.0645503 2.77083 -0.146007 2.00521 0.23655 1.20313C0.617652 0.401042 1.28095 0 2.22643 0H32.7728C33.7183 0 34.3823 0.401042 34.7649 1.20313C35.146 2.00521 35.0638 2.77083 34.5183 3.5L21.8634 19.6875V32.8125C21.8634 33.4323 21.6547 33.9515 21.2372 34.37C20.8183 34.79 20.2997 35 19.6815 35H15.3177Z" fill="#F5AF00"/>
</svg>
