<svg width="35" height="35" viewBox="0 0 35 35" fill="none" xmlns="http://www.w3.org/2000/svg">
<mask id="mask0_4_187" style="mask-type:luminance" maskUnits="userSpaceOnUse" x="4" y="1" width="30" height="30">
<path d="M17.5 29.1666C23.9436 29.1666 29.1667 23.9436 29.1667 17.4999C29.1667 11.0563 23.9436 5.83325 17.5 5.83325C11.0564 5.83325 5.83334 11.0563 5.83334 17.4999C5.83334 23.9436 11.0564 29.1666 17.5 29.1666Z" stroke="white" stroke-width="2.66667" stroke-linecap="round" stroke-linejoin="round"/>
<path d="M17.5 20.4166C18.2736 20.4166 19.0154 20.1093 19.5624 19.5624C20.1094 19.0154 20.4167 18.2735 20.4167 17.5C20.4167 16.7264 20.1094 15.9845 19.5624 15.4376C19.0154 14.8906 18.2736 14.5833 17.5 14.5833C16.7265 14.5833 15.9846 14.8906 15.4376 15.4376C14.8906 15.9845 14.5833 16.7264 14.5833 17.5C14.5833 18.2735 14.8906 19.0154 15.4376 19.5624C15.9846 20.1093 16.7265 20.4166 17.5 20.4166ZM17.5 2.91663C19.4151 2.91663 21.3115 3.29384 23.0808 4.02672C24.8501 4.7596 26.4578 5.8338 27.812 7.18799C29.1662 8.54217 30.2404 10.1498 30.9732 11.9192C31.7061 13.6885 32.0833 15.5848 32.0833 17.5H26.2544C26.2544 15.1782 25.332 12.9514 23.6903 11.3097C22.0485 9.66792 19.8218 8.74558 17.5 8.74558V2.91663Z" fill="white" stroke="white" stroke-width="2.66667" stroke-linecap="round" stroke-linejoin="round"/>
</mask>
<g mask="url(#mask0_4_187)">
<path d="M0 0H35V35H0V0Z" fill="#F5AF00"/>
</g>
</svg>
