<svg width="34" height="34" viewBox="0 0 34 34" fill="none" xmlns="http://www.w3.org/2000/svg">
<path d="M17 2.07791e-06C15.9648 -0.00102102 14.9649 0.375791 14.1879 1.05971C13.4108 1.74363 12.9101 2.68764 12.7797 3.71455C12.6492 4.74146 12.8981 5.78066 13.4795 6.63711C14.0609 7.49356 14.9349 8.10836 15.9375 8.36613V15.9375C15.9375 16.2193 16.0494 16.4895 16.2487 16.6888C16.448 16.8881 16.7182 17 17 17C17.2818 17 17.552 16.8881 17.7513 16.6888C17.9506 16.4895 18.0625 16.2193 18.0625 15.9375V8.36613C19.0651 8.10836 19.9391 7.49356 20.5205 6.63711C21.1019 5.78066 21.3508 4.74146 21.2203 3.71455C21.0899 2.68764 20.5892 1.74363 19.8121 1.05971C19.0351 0.375791 18.0352 -0.00102102 17 2.07791e-06ZM2.125 6.375C2.125 5.81142 2.34888 5.27091 2.7474 4.8724C3.14591 4.47389 3.68641 4.25 4.25 4.25C4.81359 4.25 5.35409 4.47389 5.7526 4.8724C6.15112 5.27091 6.375 5.81142 6.375 6.375V14.875C6.375 15.1568 6.48694 15.427 6.6862 15.6263C6.88546 15.8256 7.15571 15.9375 7.4375 15.9375H12.75C13.0318 15.9375 13.302 15.8256 13.5013 15.6263C13.7006 15.427 13.8125 15.1568 13.8125 14.875C13.8125 14.5932 13.7006 14.323 13.5013 14.1237C13.302 13.9244 13.0318 13.8125 12.75 13.8125H8.5V6.375C8.5 5.24783 8.05223 4.16683 7.2552 3.3698C6.45817 2.57277 5.37717 2.125 4.25 2.125C3.12283 2.125 2.04183 2.57277 1.2448 3.3698C0.447766 4.16683 0 5.24783 0 6.375V29.75C0 30.8772 0.447766 31.9582 1.2448 32.7552C2.04183 33.5522 3.12283 34 4.25 34C5.37717 34 6.45817 33.5522 7.2552 32.7552C8.05223 31.9582 8.5 30.8772 8.5 29.75V22.3125H12.75V29.75C12.75 30.8772 13.1978 31.9582 13.9948 32.7552C14.7918 33.5522 15.8728 34 17 34C18.1272 34 19.2082 33.5522 20.0052 32.7552C20.8022 31.9582 21.25 30.8772 21.25 29.75V23.375H30.8125C31.6579 23.375 32.4686 23.0392 33.0664 22.4414C33.6642 21.8436 34 21.0329 34 20.1875V6.375C34 5.24783 33.5522 4.16683 32.7552 3.3698C31.9582 2.57277 30.8772 2.125 29.75 2.125C28.6228 2.125 27.5418 2.57277 26.7448 3.3698C25.9478 4.16683 25.5 5.24783 25.5 6.375V13.8125H21.25C20.9682 13.8125 20.698 13.9244 20.4987 14.1237C20.2994 14.323 20.1875 14.5932 20.1875 14.875C20.1875 15.1568 20.2994 15.427 20.4987 15.6263C20.698 15.8256 20.9682 15.9375 21.25 15.9375H26.5625C26.8443 15.9375 27.1145 15.8256 27.3138 15.6263C27.5131 15.427 27.625 15.1568 27.625 14.875V6.375C27.625 5.81142 27.8489 5.27091 28.2474 4.8724C28.6459 4.47389 29.1864 4.25 29.75 4.25C30.3136 4.25 30.8541 4.47389 31.2526 4.8724C31.6511 5.27091 31.875 5.81142 31.875 6.375V20.1875C31.875 20.4693 31.7631 20.7395 31.5638 20.9388C31.3645 21.1381 31.0943 21.25 30.8125 21.25H20.1875C19.9057 21.25 19.6355 21.3619 19.4362 21.5612C19.2369 21.7605 19.125 22.0307 19.125 22.3125V29.75C19.125 30.3136 18.9011 30.8541 18.5026 31.2526C18.1041 31.6511 17.5636 31.875 17 31.875C16.4364 31.875 15.8959 31.6511 15.4974 31.2526C15.0989 30.8541 14.875 30.3136 14.875 29.75V21.25C14.875 20.9682 14.7631 20.698 14.5638 20.4987C14.3645 20.2994 14.0943 20.1875 13.8125 20.1875H7.4375C7.15571 20.1875 6.88546 20.2994 6.6862 20.4987C6.48694 20.698 6.375 20.9682 6.375 21.25V29.75C6.375 30.3136 6.15112 30.8541 5.7526 31.2526C5.35409 31.6511 4.81359 31.875 4.25 31.875C3.68641 31.875 3.14591 31.6511 2.7474 31.2526C2.34888 30.8541 2.125 30.3136 2.125 29.75V6.375Z" fill="#F5AF00"/>
</svg>
