<svg width="33" height="33" viewBox="0 0 33 33" fill="none" xmlns="http://www.w3.org/2000/svg">
<path d="M15.5024 0.435547L14.4619 2.81104C13.9234 2.8439 13.3875 2.91172 12.8577 3.01406L11.2662 0.958906L9.55079 1.54215L9.54225 4.15689C8.81559 4.53041 8.11921 4.98199 7.46139 5.50904L5.03702 4.41748L3.79582 5.73771L5.03695 8.0918C4.64098 8.65629 4.293 9.25297 3.99666 9.87557L1.33488 9.94816L0.794434 11.6763L2.94352 13.2594C2.84063 13.9006 2.79039 14.5485 2.78752 15.1969L0.401367 16.406L0.651289 18.2004L3.27034 18.7131C3.42691 19.2613 3.62105 19.7981 3.8514 20.3196L2.12539 22.4623L3.08878 23.996L5.77188 23.368C5.94167 23.5678 6.11762 23.7622 6.29948 23.9511C6.67933 24.344 7.08393 24.7122 7.51081 25.0534L6.98957 27.7408L8.5576 28.6466L10.6062 26.8628C11.1924 27.0984 11.7959 27.2884 12.4114 27.431L13.08 30.0564L14.8851 30.2039L15.9703 27.7279C16.7202 27.6828 17.4676 27.5707 18.2026 27.3903L19.9267 29.3878L21.6078 28.7149L21.5586 27.7023L17.6344 24.7266C16.4919 25.0154 15.3073 25.0927 14.1437 24.9615C11.973 24.7167 9.88698 23.7365 8.24991 22.0435C4.50806 18.1734 4.61504 12.0172 8.48493 8.27548C10.3593 6.46307 12.7704 5.54363 15.1842 5.51759C17.7538 5.48983 20.3257 6.47435 22.2551 8.46982C25.3952 11.7177 25.8232 16.6036 23.5924 20.3025L25.7778 21.9602C26.0495 21.5341 26.2949 21.0918 26.5127 20.6357L29.1551 20.5631L29.6955 18.835L27.5616 17.2627C27.6645 16.6162 27.7166 15.9626 27.7174 15.308L30.0887 14.1032L29.8388 12.3088L27.222 11.7961C27.0019 11.038 26.71 10.3027 26.3504 9.60001L27.9097 7.44026L26.8672 5.9598L24.2997 6.70533C24.2674 6.67115 24.2361 6.63649 24.2034 6.60279C23.7993 6.18463 23.3667 5.79487 22.9089 5.43631L23.4003 2.89847L21.832 1.99277L19.8838 3.68904C19.2531 3.43522 18.6053 3.23767 17.9483 3.0909L17.3096 0.58293L15.5024 0.435547ZM11.5269 10.9287C10.8197 10.9368 10.1189 11.1104 9.47607 11.4264L12.5673 13.7721C13.5022 14.4813 13.7673 15.8293 13.0499 16.7756C12.3323 17.7223 10.9543 17.8647 10.0059 17.1452L6.91684 14.8017C6.60054 16.4966 7.1995 18.2924 8.66643 19.4053C9.982 20.4032 11.6704 20.59 13.1248 20.0676L13.4516 19.95L13.7271 20.1594L22.9686 27.1706L23.2441 27.3799L23.2205 27.726C23.1086 29.2675 23.7394 30.8439 25.0556 31.8424C26.5226 32.9553 28.4151 33.0476 29.9624 32.2868L26.8735 29.9434C25.9251 29.2239 25.6921 27.858 26.4101 26.9121C27.1278 25.966 28.4975 25.859 29.4327 26.5681L32.5217 28.9117C32.8373 27.2175 32.2408 25.4208 30.7743 24.3081C29.454 23.3061 27.779 23.1075 26.3331 23.6222L26.0084 23.7376L25.7329 23.5282L16.4914 16.5172L16.2159 16.3078L16.2394 15.9639C16.3454 14.4336 15.7028 12.8745 14.383 11.873C13.5255 11.2225 12.5221 10.9174 11.5269 10.9288L11.5269 10.9287ZM14.5048 17.0981L25.7072 25.5982L24.936 26.6172L13.7314 18.115L14.5048 17.0981Z" fill="#F5AF00"/>
</svg>
