<svg width="35" height="35" viewBox="0 0 35 35" fill="none" xmlns="http://www.w3.org/2000/svg">
<path d="M28.3835 8.13172C27.3802 7.03797 25.5704 6.97089 24.3644 8.17693L12.5519 19.9894C12.2456 20.2957 12.2456 20.6836 12.5519 20.9898C12.8581 21.2961 13.246 21.2961 13.5523 20.9898L23.3231 11.219C23.5982 10.9534 23.9666 10.8064 24.3489 10.8097C24.7313 10.813 25.0971 10.9664 25.3674 11.2368C25.6378 11.5072 25.7912 11.8729 25.7945 12.2553C25.7979 12.6377 25.6509 13.0061 25.3852 13.2811L15.6144 23.0519C15.2814 23.3946 14.8831 23.667 14.4429 23.853C14.0028 24.039 13.5299 24.1348 13.0521 24.1348C12.5743 24.1348 12.1013 24.039 11.6612 23.853C11.2211 23.667 10.8228 23.3946 10.4898 23.0519C10.1471 22.7189 9.87476 22.3206 9.68877 21.8805C9.50277 21.4404 9.40694 20.9674 9.40694 20.4896C9.40694 20.0118 9.50277 19.5389 9.68877 19.0988C9.87476 18.6587 10.1471 18.2603 10.4898 17.9273L22.3023 6.11485C24.5875 3.82818 28.3033 3.7538 30.5127 6.13672C32.776 8.42485 32.8417 12.1217 30.469 14.3223L16.6352 28.1561C13.4415 31.3498 8.43355 31.3498 5.23979 28.1561C2.04604 24.9623 2.04604 19.9544 5.23979 16.7607L17.0523 4.94818C17.3273 4.68253 17.6957 4.53554 18.0781 4.53886C18.4605 4.54218 18.8262 4.69556 19.0966 4.96594C19.367 5.23633 19.5204 5.6021 19.5237 5.98447C19.527 6.36684 19.38 6.73522 19.1144 7.01026L7.30188 18.8228C5.24563 20.879 5.24563 24.0378 7.30188 26.094C9.35813 28.1503 12.5169 28.1503 14.5731 26.094L28.4273 12.2398L28.4725 12.1961C29.5663 11.1942 29.6333 9.38297 28.4273 8.17693C28.4124 8.16216 28.3978 8.14709 28.3835 8.13172Z" fill="#F5AF00"/>
</svg>
