<svg width="20" height="40" viewBox="0 0 20 40" fill="none" xmlns="http://www.w3.org/2000/svg">
<path d="M12 28.3923C13 28.7327 13.8 29.2933 14.46 30.0341H16V38.0433H14.42C13.78 38.7441 13 39.3047 12 39.6451C9.7 40.486 7.16 39.7852 5.56 38.0433H4V30.0341H5.54C6.2 29.2933 7 28.7327 8 28.3923V20.0228H12V28.3923ZM10 36.041C10.5304 36.041 11.0391 35.83 11.4142 35.4545C11.7893 35.079 12 34.5697 12 34.0387C12 33.5077 11.7893 32.9984 11.4142 32.6229C11.0391 32.2474 10.5304 32.0364 10 32.0364C9.46957 32.0364 8.96086 32.2474 8.58579 32.6229C8.21071 32.9984 8 33.5077 8 34.0387C8 34.5697 8.21071 35.079 8.58579 35.4545C8.96086 35.83 9.46957 36.041 10 36.041ZM20 4.00455H16V6.00683H20V18.0205H0V6.00683H4V4.00455H0V0H20V4.00455ZM10 14.0159C10.5304 14.0159 11.0391 13.805 11.4142 13.4295C11.7893 13.054 12 12.5447 12 12.0137C12 11.4826 11.7893 10.9733 11.4142 10.5978C11.0391 10.2223 10.5304 10.0114 10 10.0114C9.46957 10.0114 8.96086 10.2223 8.58579 10.5978C8.21071 10.9733 8 11.4826 8 12.0137C8 12.5447 8.21071 13.054 8.58579 13.4295C8.96086 13.805 9.46957 14.0159 10 14.0159Z" fill="#F5AF00"/>
</svg>
