<svg width="35" height="35" viewBox="0 0 35 35" fill="none" xmlns="http://www.w3.org/2000/svg">
<path d="M33.0556 19.4444C34.125 19.4444 35 18.5694 35 17.5C35 16.4306 34.125 15.5556 33.0556 15.5556H31.1111V3.88889H33.0556C34.125 3.88889 35 3.01389 35 1.94444C35 0.875 34.125 0 33.0556 0H1.94444C0.875 0 0 0.875 0 1.94444C0 3.01389 0.875 3.88889 1.94444 3.88889H3.88889V15.5556H1.94444C0.875 15.5556 0 16.4306 0 17.5C0 18.5694 0.875 19.4444 1.94444 19.4444H3.88889V31.1111H1.94444C0.875 31.1111 0 31.9861 0 33.0556C0 34.125 0.875 35 1.94444 35H33.0556C34.125 35 35 34.125 35 33.0556C35 31.9861 34.125 31.1111 33.0556 31.1111H31.1111V19.4444H33.0556ZM17.5 25.2778C14.2722 25.2778 11.6667 22.7111 11.6667 19.5417C11.6667 17.0139 12.6389 16.2944 17.5 10.6944C22.3028 16.2556 23.3333 16.9944 23.3333 19.5417C23.3333 22.7111 20.7278 25.2778 17.5 25.2778Z" fill="#F5AF00"/>
</svg>
