<svg width="28" height="28" viewBox="0 0 28 28" fill="none" xmlns="http://www.w3.org/2000/svg">
<path d="M21.7778 20.2237L15.5556 14.0027V9.057C17.6556 8.29492 19.0711 6.11757 18.5578 3.67582C18.3583 2.76924 17.894 1.94231 17.2238 1.29993C16.5536 0.657543 15.7077 0.228641 14.7933 0.0676241C14.1228 -0.0477537 13.4352 -0.0151943 12.7785 0.163022C12.1219 0.341239 11.5122 0.660805 10.9921 1.09934C10.472 1.53788 10.054 2.0848 9.76747 2.70178C9.48094 3.31877 9.33277 3.99093 9.33333 4.67118C9.33333 6.69301 10.64 8.40379 12.4444 9.057V14.0027L6.22222 20.2237H1.55556C0.7 20.2237 0 20.9236 0 21.779V26.4447C0 27.3001 0.7 28 1.55556 28H6.22222C7.07778 28 7.77778 27.3001 7.77778 26.4447V23.2565L14 16.7244L20.2222 23.2565V26.4447C20.2222 27.3001 20.9222 28 21.7778 28H26.4444C27.3 28 28 27.3001 28 26.4447V21.779C28 20.9236 27.3 20.2237 26.4444 20.2237H21.7778Z" fill="#F5AF00"/>
</svg>
