<svg width="19" height="23" viewBox="0 0 19 23" fill="none" xmlns="http://www.w3.org/2000/svg">
<path d="M8.12332 4.2424C9.62206 1.41414 10.3715 0 11.4999 0C12.6284 0 11.5013 10.6717 13 13.5C13.3311 14.1248 12.4368 19.8657 13 20.2941C13.5367 20.7021 12.3663 20.723 13 20.8451C16.0105 21.4253 12.7107 19.7953 13.1049 20.8965C13.0856 20.8127 13.1337 20.9769 13.1049 20.8965C13.3704 22.0416 15.652 18.5538 13.5 20.8965C12.8266 21.6295 19.0217 14.4251 18.887 14.8995C18.7624 15.3393 13.8799 19.7407 14 20.6937C14.4129 23.9679 13.8844 19.259 13 20C11.4163 21.3271 14.5357 21.5955 13.1049 20.8965C12.3149 20.5106 11.9199 20.2941 11.4999 20.2941C11.08 20.2941 10.6849 20.5106 9.8949 20.8965C8.4641 21.5955 5.90957 23.9258 4.32579 22.5986C3.44144 21.8576 3.65126 20.0429 4.0641 16.7686C4.18423 15.8157 4.2443 15.3393 4.11958 14.8995C3.98501 14.4251 3.67904 14.078 3.00565 13.345C0.853562 11.0024 -0.225896 10.0085 0.0395627 8.86336C0.058969 8.77965 0.0831574 8.69735 0.111975 8.61689C0.506176 7.51573 2.01142 7.22562 5.02192 6.64541C5.65564 6.52334 6.40474 6.48306 6.94141 6.07505C7.50462 5.64664 7.79222 4.8672 8.12332 4.2424Z" fill="#FFB800"/>
</svg>
