<svg width="23" height="23" viewBox="0 0 23 23" fill="none" xmlns="http://www.w3.org/2000/svg">
<path d="M8.12332 4.2424C9.62206 1.41414 10.3715 0 11.4999 0C12.6284 0 13.3778 1.41414 14.8765 4.2424C15.2076 4.8672 15.4952 5.64664 16.0584 6.07505C16.5951 6.48306 17.3442 6.52334 17.9779 6.64541C20.9884 7.22562 22.4936 7.51573 22.8879 8.61689C22.9166 8.69735 22.9409 8.77965 22.9602 8.86336C23.2257 10.0085 22.153 11.0024 20.001 13.345C19.3276 14.078 19.0217 14.4251 18.887 14.8995C18.7624 15.3393 18.8224 15.8157 18.9425 16.7686C19.3554 20.0429 19.5584 21.8576 18.674 22.5986C17.0903 23.9258 14.5357 21.5955 13.1049 20.8965C12.3149 20.5106 11.9199 20.2941 11.4999 20.2941C11.08 20.2941 10.6849 20.5106 9.8949 20.8965C8.4641 21.5955 5.90957 23.9258 4.32579 22.5986C3.44144 21.8576 3.65127 20.0429 4.0641 16.7686C4.18423 15.8157 4.2443 15.3393 4.11958 14.8995C3.98501 14.4251 3.67904 14.078 3.00565 13.345C0.853562 11.0024 -0.225896 10.0085 0.0395627 8.86336C0.058969 8.77965 0.0831574 8.69735 0.111975 8.61689C0.506176 7.51573 2.01142 7.22562 5.02192 6.64541C5.65564 6.52334 6.40474 6.48306 6.94141 6.07505C7.50462 5.64664 7.79222 4.8672 8.12332 4.2424Z" fill="#FFB800"/>
</svg>
